<svg id="icon-youtube" xmlns="http://www.w3.org/2000/svg" width="24" height="24" viewBox="0 0 24 24">
  <circle id="svg" cx="12" cy="12" r="12" fill="#fff"/>
  <path id="svg-2" data-name="svg" d="M12,0A12,12,0,1,0,24,12,12,12,0,0,0,12,0Zm7.372,14.686a2.767,2.767,0,0,1-1.9,2.459,80.717,80.717,0,0,1-10.942,0c-1.1-.138-1.82-1.461-1.9-2.459a28.355,28.355,0,0,1,0-5.388c.081-1,.821-2.313,1.9-2.433a76.558,76.558,0,0,1,10.942,0c1.221.045,1.82,1.3,1.9,2.3A30.273,30.273,0,0,1,19.372,14.686Z" fill="#f25c5c"/>
  <path id="svg-3" data-name="svg" d="M212.8,188.4l4.5-3-4.5-3Z" transform="translate(-202.296 -173.397)" fill="#f25c5c"/>
</svg>
