<svg xmlns="http://www.w3.org/2000/svg" width="200" height="49" aria-labelledby="0.1836855277341536"><g fill="none" fill-rule="evenodd"><title id="0.1836855277341536">Researcher: Home</title><path d="M45.916 18.059h-6.28l-.33.333v5.342l.33.334h6.28c1.984 0 3.306-.668 3.306-3.005 0-2.337-1.322-3.004-3.306-3.004m2.975 9.681v.335l4.299 5.675v3.339l-.331.333h-1.984l-.661-.333-6.612-8.681-.661-.333h-3.306l-.33.333v8.68l-.33.334h-3.968l-.33-.333V14.386l.33-.334h10.91c4.628 0 7.933 2.337 7.933 7.011 0 3.672-2.314 6.01-4.96 6.677M66.03 27.072c0-.333-.33-2.67-2.974-2.67-2.645 0-2.976 2.337-2.976 2.67l.331.334h5.29l.33-.334zm4.96 3.34l-.331.333H60.41l-.33.334c0 .668.661 2.67 3.305 2.67.993 0 1.984-.333 2.314-1l.33-.335h3.968l.33.335c-.33 2.002-1.983 5.007-6.942 5.007-5.62 0-8.265-4.006-8.265-8.68 0-4.674 2.645-8.68 7.935-8.68 5.289 0 7.934 4.006 7.934 8.68v1.335zM80.127 37.756c-4.628 0-7.273-2.337-7.273-5.675l.33-.334h3.968l.33.334c0 1.335.993 1.669 2.645 1.669 1.653 0 2.645-.334 2.645-1.336 0-1.335-1.323-1.335-3.306-1.669-1.984-.334-6.281-1.335-6.281-5.342 0-2.67 1.983-5.007 6.942-5.007 3.967 0 6.942 1.669 6.942 5.007l-.33.334h-3.967l-.331-.334c0-.668-.66-1.001-2.314-1.001-1.652 0-2.314.333-2.314 1.335 0 1.335 1.983 1.335 3.967 1.67 1.983.333 5.62 1.001 5.62 5.007 0 2.671-1.983 5.342-7.273 5.342M100.173 27.072c0-.333-.33-2.67-2.975-2.67-2.644 0-2.975 2.337-2.975 2.67l.33.334h5.29l.33-.334zm4.959 3.34l-.33.333H94.553l-.331.334c0 .668.661 2.67 3.305 2.67.993 0 1.984-.333 2.314-1l.33-.335h3.969l.329.335c-.33 2.002-1.983 5.007-6.942 5.007-5.62 0-8.264-4.006-8.264-8.68 0-4.674 2.644-8.68 7.934-8.68 5.289 0 7.934 4.006 7.934 8.68v1.335zM116.6 30.411s-.662-.334-1.984-.334c-1.984 0-2.975.668-2.975 2.004 0 1 .66 1.669 2.314 1.669s2.975-1.002 2.975-2.337v-.668l-.33-.334zm4.61 7.011h-3.636l-.33-.333-.331-.668h-.33s-1.323 1.335-3.637 1.335c-3.636 0-5.95-2.003-5.95-5.342 0-5.007 4.628-5.675 7.273-5.675 1.322 0 2.314.333 2.314.333l.33-.333v-.334c0-1.67-.33-2.003-2.315-2.003-.991 0-1.983 0-2.314 1.001l-.33.334h-3.967l-.33-.334c0-2.003 1.653-5.008 6.941-5.008 5.29 0 6.944 2.67 6.944 7.68v9.014l-.331.333zM134.726 24.735h-2.314c-2.645 0-3.636 1.336-3.636 4.34v8.014l-.331.333h-3.968l-.33-.333V21.063l.33-.334h3.636l.332.334.33 1.002h.33s.662-1.336 3.637-1.336h1.984l.33.334v3.339l-.33.333zM144.129 33.75c1.652 0 2.645-.668 2.974-1.67l.331-.333h3.968l.33.334c-.661 4.006-3.967 5.675-7.603 5.675-4.96 0-8.265-3.339-8.265-8.68 0-5.342 3.306-8.68 8.265-8.68 3.636 0 6.942 1.669 7.603 5.675l-.33.334h-3.968l-.33-.334c-.33-1.002-1.323-1.67-2.975-1.67-2.314 0-3.637 1.67-3.637 4.675s1.323 4.674 3.637 4.674M168.865 37.422h-3.967l-.331-.333v-9.683c0-1.669-.66-3.004-2.644-3.004-2.315 0-3.637 1.335-3.637 4.34v8.347l-.33.333h-3.968l-.33-.333V14.386l.33-.334h3.967l.331.334v7.679h.33c.662-.668 1.984-1.67 4.298-1.67 3.967 0 6.28 2.671 6.28 6.677V37.09l-.329.333zM182.229 27.072c0-.333-.331-2.67-2.976-2.67s-2.975 2.337-2.975 2.67l.33.334h5.29l.33-.334zm4.768 3.34l-.33.333H176.42l-.33.334c0 .668.66 2.67 3.306 2.67.992 0 1.983-.333 2.314-1l.33-.335h3.967l.33.335c-.33 2.002-1.982 5.007-6.941 5.007-5.62 0-8.265-4.006-8.265-8.68 0-4.674 2.645-8.68 7.934-8.68 5.29 0 7.933 4.006 7.933 8.68v1.335zM199.511 24.735h-2.314c-2.644 0-3.636 1.336-3.636 4.34v8.014l-.331.333h-3.967l-.33-.333V21.063l.33-.334h3.636l.33.334.332 1.002h.33s.662-1.336 3.636-1.336h1.984l.33.334v3.339l-.33.333z" fill="hsla(0, 0%, 0%, 0.805)"></path><path fill="hsl(337, 93.7%, 64.8%)" d="M.185 38.875l17.108 9.975 2.159-3.774L.185 33.842zM15.135 20.041l4.316 2.517-10.634 6.25-4.316-2.517 10.634-6.25zm-2.002 11.284l10.635-6.25v-5.033L2.343 7.55.185 11.325l10.634 6.2-10.634 6.25v5.034L21.61 41.301l2.159-3.775-10.635-6.2zM23.768 9.975L6.66 0 4.5 3.775 23.768 15.01z"></path></g></svg>
