<svg xmlns="http://www.w3.org/2000/svg" version="1.1" xmlns:xlink="http://www.w3.org/1999/xlink" xmlns:svgjs="http://svgjs.com/svgjs" width="468" height="82"><svg xmlns="http://www.w3.org/2000/svg" version="1.1" xmlns:xlink="http://www.w3.org/1999/xlink" xmlns:svgjs="http://svgjs.com/svgjs" width="107.78" height="28.72"><path d="M22.591,22.038H4.045V20.947H5.573c.327-3.709,3.818-5.018,5.782-8.073H9.063a6.143,6.143,0,0,0-2.727,4.254H3.5v-1.2l-.982.764L.009,13.748A.478.478,0,0,1-.1,13.42V13.2L3.827,7.857l.655-2.073,1.091-.436L6.664,3.82,6.445,1.2a2.622,2.622,0,0,1,2.618.436V0A2.386,2.386,0,0,1,11.9,1.966a5.527,5.527,0,0,1,1.418.218.725.725,0,0,1,.545-.436.584.584,0,0,1,.545.545V2.4A11.174,11.174,0,0,1,16.7,3.493a.827.827,0,0,1,.436-.218.584.584,0,0,1,.545.545c0,.109,0,.327-.109.327a10.194,10.194,0,0,1,1.745,1.964c.109,0,.218-.109.327-.109a.707.707,0,0,1,.655.545.6.6,0,0,1-.327.545A12.5,12.5,0,0,1,21.063,9.6h.109a.584.584,0,0,1,.545.545.5.5,0,0,1-.436.545,19.749,19.749,0,0,1,.327,2.509.707.707,0,0,1,.655.545c0,.327-.327.545-.545.655a21.021,21.021,0,0,1-.109,2.618.6.6,0,1,1-.109,1.2h0a22.342,22.342,0,0,1-.545,2.618h1.636v1.2Zm-2.836-1.091c2.291-9.382-.436-16.8-7.636-17.672V5.13l-1.091-.218c0-.436.109-3.054-.873-3.6a14.344,14.344,0,0,1-.327,2.836L8.736,3.93a1.548,1.548,0,0,0-.982-1.636l.327,1.964-.655.873L7.754,6l-2.182.764L5.027,8.4l-3.6,5.018,1.418,1.636,1.527-1.309.327.218v1.964h.764a8.376,8.376,0,0,1,2.509-3.818l-.545-.655.873-.764.873.982h2.945a8.132,8.132,0,0,0,.655-3.382h1.091c0,4.473-2.291,6.218-5.018,8.945a5.785,5.785,0,0,0-2.073,3.6H19.754ZM3.391,12.22c0,.545,0,1.309-.327,1.636l-.873-.327a2.4,2.4,0,0,0,.436-1.418ZM7.973,7.857l-1.745.982L6.009,7.42,7.864,7.2Z" transform="matrix(1,0,0,1,0.1,0.026)" fill="#002a5c"></path><path d="M22.245,25.691H3.7V23.4H22.245Z" transform="matrix(1,0,0,1,0.445,2.155)" fill="#f47920"></path><path d="M32.754,21.782a8.558,8.558,0,0,1-3.818-.873,30.991,30.991,0,0,1-.436-3.818l.873-.109c.545,1.964,1.2,3.818,3.6,3.818a2.38,2.38,0,0,0,2.618-2.509c0-4.036-6.764-3.164-6.764-7.854,0-2.073,1.745-4.036,4.8-4.036a13.35,13.35,0,0,1,3.273.655c.109.873.109,1.745.218,3.382h-.873c-.436-1.418-.982-3.054-3.054-3.054A2.119,2.119,0,0,0,30.9,9.673c0,3.709,6.873,2.945,6.873,7.854C37.882,19.709,35.809,21.782,32.754,21.782Zm11.236-.218a2.475,2.475,0,0,1-1.418-.327v3.709c0,1.309.109,1.418,1.964,1.636v.764H38.973v-.764c1.418-.109,1.527-.327,1.527-1.636V14.473c0-1.418,0-1.418-1.418-1.527v-.655a17.27,17.27,0,0,0,3.382-.982v1.527l2.073-1.091a2.567,2.567,0,0,1,.873-.218,3.934,3.934,0,0,1,3.818,4.145A5.757,5.757,0,0,1,43.991,21.563Zm.436-8.618a4.359,4.359,0,0,0-1.964.764v5.782a2.765,2.765,0,0,0,1.964.873c1.091,0,2.618-.873,2.618-3.818C47.154,14.036,45.954,12.945,44.427,12.945Zm12.327.982a1.063,1.063,0,0,0-.982-.436c-.545,0-1.091.545-1.527,1.855v3.709c0,1.309.109,1.418,1.855,1.527v.764H50.754v-.764c1.309-.109,1.527-.218,1.527-1.527V14.582c0-1.309-.109-1.309-1.309-1.527V12.4a17.089,17.089,0,0,0,3.382-.873v2.4h0c.655-1.309,1.636-2.291,2.618-2.291a1.238,1.238,0,0,1,1.309,1.2C58.172,13.709,57.19,14.473,56.754,13.927Zm7.418,7.418H59.154v-.764c1.309-.109,1.527-.218,1.527-1.636V14.691c0-1.527-.109-1.527-1.418-1.636V12.4a25.379,25.379,0,0,0,3.382-.873v7.418c0,1.418.109,1.527,1.527,1.636v.764ZM61.663,9.454a1.26,1.26,0,0,1-1.309-1.309,1.353,1.353,0,0,1,1.309-1.418,1.375,1.375,0,0,1,1.418,1.418A1.516,1.516,0,0,1,61.663,9.454ZM76.172,21.345H71.59v-.764c1.091-.109,1.309-.218,1.309-1.527V15.236c0-1.418-.655-2.291-1.855-2.291a3.5,3.5,0,0,0-2.182,1.091v5.018c0,1.309.109,1.418,1.2,1.527v.764h-4.8v-.764c1.309-.109,1.527-.218,1.527-1.527V14.582c0-1.309-.109-1.418-1.309-1.527V12.4a14.354,14.354,0,0,0,3.273-.873v1.527a6.156,6.156,0,0,1,3.164-1.527,2.754,2.754,0,0,1,2.836,3.054v4.582c0,1.309.218,1.418,1.418,1.527Zm11.236-9.273a2.538,2.538,0,0,1-.982,1.2l-1.091-.109a3.767,3.767,0,0,1,.545,1.964,3.909,3.909,0,0,1-4.145,3.709h-.655a1.3,1.3,0,0,0-.873,1.091c0,.327.327.764,1.309.764h2.4c1.418,0,3.273.655,3.273,2.836,0,2.509-2.618,4.582-5.673,4.582-2.618,0-4.036-1.636-4.036-2.945,0-.873.436-1.527,2.291-2.945a2.26,2.26,0,0,1-1.745-2.182A6.779,6.779,0,0,0,80.1,18.509a3.273,3.273,0,0,1-2.073-3.054,4.084,4.084,0,0,1,4.145-3.927,5.071,5.071,0,0,1,2.291.545,12.827,12.827,0,0,0,2.945-.327ZM84.354,22.545a7.5,7.5,0,0,0-2.509-.218,2.305,2.305,0,0,0-2.4,2.182c0,1.309,1.2,2.4,2.945,2.4a2.777,2.777,0,0,0,3.054-2.618A2.253,2.253,0,0,0,84.354,22.545ZM81.845,12.509c-.873,0-1.745.873-1.745,2.509s.873,2.836,2.073,2.836c.873,0,1.636-.764,1.636-2.509C83.808,13.709,83.045,12.509,81.845,12.509ZM95.7,15.891c-.327,0-3.054.218-5.564.327.109,2.618,1.636,3.709,3.164,3.709a2.91,2.91,0,0,0,2.291-.982l.545.655a4.753,4.753,0,0,1-3.491,1.964c-2.836,0-4.364-2.073-4.364-4.582,0-3.054,2.291-5.454,4.582-5.454a3.515,3.515,0,0,1,3.491,3.491C96.244,15.673,96.135,15.891,95.7,15.891Zm-3.382-3.382c-.873,0-1.855.982-2.073,2.618l3.382-.109c.436,0,.545-.109.545-.545A1.932,1.932,0,0,0,92.317,12.509Zm11.345,1.418a1.333,1.333,0,0,0-.982-.436c-.545,0-1.2.545-1.636,1.855v3.709c0,1.309.109,1.418,1.854,1.527v.764H97.553v-.764c1.418-.109,1.527-.218,1.527-1.527V14.582c0-1.309-.109-1.309-1.309-1.527V12.4a13.887,13.887,0,0,0,3.382-.873v2.4h0c.655-1.309,1.636-2.291,2.618-2.291a1.238,1.238,0,0,1,1.309,1.2C105.081,13.709,104.1,14.473,103.662,13.927Z" transform="matrix(1,0,0,1,2.699,0.61)" fill="#002a5c"></path></svg><path d="M10.17 69.92L10.17 70.92L1.12 70.92L1.12 69.92Q1.5 69.89 2.22 69.83Q2.95 69.78 3.24 69.66L3.24 69.66Q3.71 69.47999999999999 3.92 69.16Q4.13 68.84 4.13 68.27L4.13 68.27L4.13 53.72Q4.13 53.22 3.98 52.89Q3.82 52.56 3.24 52.33L3.24 52.33Q2.82 52.16 2.17 52.01Q1.53 51.86 1.12 51.83L1.12 51.83L1.12 50.83L10.17 50.83L10.17 51.83Q9.73 51.849999999999994 9.12 51.94Q8.51 52.03 8.06 52.17L8.06 52.17Q7.52 52.339999999999996 7.33 52.73Q7.15 53.11 7.15 53.58L7.15 53.58L7.15 68.12Q7.15 68.59 7.36 68.95Q7.56 69.31 8.06 69.52L8.06 69.52Q8.35 69.63 9.03 69.77Q9.7 69.9 10.17 69.92L10.17 69.92ZM27.88 69.99L27.88 70.92L21.05 70.92L21.05 69.99Q21.37 69.96 21.76 69.93Q22.15 69.9 22.4 69.82L22.4 69.82Q22.8 69.69 22.99 69.37Q23.18 69.05 23.18 68.53999999999999L23.18 68.53999999999999L23.18 61.36Q23.18 59.879999999999995 22.48 59.07Q21.78 58.26 20.78 58.26L20.78 58.26Q20.03 58.26 19.4 58.5Q18.78 58.73 18.3 59.07L18.3 59.07Q17.83 59.4 17.55 59.769999999999996Q17.28 60.15 17.15 60.37L17.15 60.37L17.15 68.4Q17.15 68.88 17.35 69.2Q17.55 69.50999999999999 17.94 69.68L17.94 69.68Q18.24 69.82 18.59 69.89Q18.94 69.96 19.3 69.99L19.3 69.99L19.3 70.92L12.46 70.92L12.46 69.99Q12.79 69.96 13.14 69.93Q13.48 69.9 13.74 69.82L13.74 69.82Q14.14 69.69 14.33 69.37Q14.52 69.05 14.52 68.53999999999999L14.52 68.53999999999999L14.52 59.92Q14.52 59.44 14.31 59.04Q14.11 58.629999999999995 13.74 58.379999999999995L13.74 58.379999999999995Q13.47 58.21 13.1 58.129999999999995Q12.73 58.05 12.31 58.019999999999996L12.31 58.019999999999996L12.31 57.099999999999994L16.95 56.79L17.15 56.989999999999995L17.15 58.96L17.22 58.96Q17.56 58.62 18.07 58.14Q18.58 57.67 19.03 57.37L19.03 57.37Q19.56 57.03 20.28 56.81Q21 56.58 21.91 56.58L21.91 56.58Q23.92 56.58 24.89 57.83Q25.86 59.08 25.86 61.17L25.86 61.17L25.86 68.43Q25.86 68.93 26.03 69.22999999999999Q26.2 69.53999999999999 26.61 69.71L26.61 69.71Q26.95 69.85 27.2 69.9Q27.45 69.96 27.88 69.99L27.88 69.99ZM43.54 56.96L43.54 57.82Q42.9 57.94 42.32 58.28Q41.75 58.629999999999995 41.34 59.51L41.34 59.51Q40.5 61.41 39.61 63.47Q38.72 65.53 37.76 67.78999999999999L37.76 67.78999999999999Q37.47 68.44 37.16 69.34Q36.84 70.22999999999999 36.57 71.05L36.57 71.05L35.46 71.05Q34.12 67.72 32.99 64.97999999999999Q31.85 62.239999999999995 30.64 59.37L30.64 59.37Q30.35 58.72 29.72 58.36Q29.09 57.989999999999995 28.45 57.9L28.45 57.9L28.45 56.96L34.91 56.96L34.91 57.949999999999996Q34.49 57.97 33.85 58.129999999999995Q33.21 58.29 33.21 58.58L33.21 58.58Q33.21 58.62 33.28 58.79Q33.35 58.97 33.42 59.199999999999996L33.42 59.199999999999996Q34.01 60.64 35.07 63.23Q36.13 65.83 36.79 67.41L36.79 67.41Q37.3 66.19 38.08 64.38Q38.85 62.56999999999999 39.74 60.33L39.74 60.33Q39.88 59.949999999999996 40.01 59.62Q40.14 59.28 40.14 58.94L40.14 58.94Q40.14 58.699999999999996 39.9 58.51Q39.67 58.32 39.34 58.18L39.34 58.18Q39.02 58.04 38.71 57.97Q38.39 57.9 38.2 57.87L38.2 57.87L38.2 56.96L43.54 56.96ZM55.7 67.03L56.69 67.64Q55.82 69.31 54.34 70.3Q52.87 71.28999999999999 50.96 71.28999999999999L50.96 71.28999999999999Q49.27 71.28999999999999 48.01 70.7Q46.74 70.1 45.92 69.08L45.92 69.08Q45.1 68.06 44.69 66.7Q44.29 65.34 44.29 63.83L44.29 63.83Q44.29 62.47 44.72 61.16Q45.15 59.849999999999994 45.99 58.8L45.99 58.8Q46.8 57.8 47.99 57.18Q49.19 56.56 50.68 56.56L50.68 56.56Q52.2 56.56 53.29 57.05Q54.39 57.53 55.06 58.36L55.06 58.36Q55.72 59.16 56.03 60.23Q56.35 61.31 56.35 62.56999999999999L56.35 62.56999999999999L56.35 63.5L47.11 63.5Q47.11 64.88 47.37 66Q47.63 67.11 48.2 67.96L48.2 67.96Q48.75 68.78 49.64 69.25999999999999Q50.53 69.72999999999999 51.77 69.72999999999999L51.77 69.72999999999999Q53.03 69.72999999999999 53.94 69.15Q54.85 68.56 55.7 67.03L55.7 67.03ZM47.11 62.31L53.56 62.31Q53.56 61.519999999999996 53.43 60.61Q53.29 59.71 53 59.099999999999994L53 59.099999999999994Q52.67 58.449999999999996 52.11 58.04Q51.54 57.629999999999995 50.65 57.629999999999995L50.65 57.629999999999995Q49.16 57.629999999999995 48.18 58.87Q47.19 60.099999999999994 47.11 62.31L47.11 62.31ZM67.67 64.08L67.67 64.08Q68.25 64.59 68.56 65.25999999999999Q68.87 65.92 68.87 66.89L68.87 66.89Q68.87 68.83 67.42 70.06Q65.97 71.28999999999999 63.66 71.28999999999999L63.66 71.28999999999999Q62.45 71.28999999999999 61.42 70.85Q60.39 70.41 59.95 70.03999999999999L59.95 70.03999999999999L59.67 70.97L58.61 70.97L58.47 66.11L59.44 66.11Q59.56 66.66 59.93 67.4Q60.29 68.13 60.82 68.72999999999999L60.82 68.72999999999999Q61.37 69.35 62.14 69.78Q62.91 70.2 63.88 70.2L63.88 70.2Q65.24 70.2 65.97 69.58Q66.71 68.97 66.71 67.82L66.71 67.82Q66.71 67.22999999999999 66.47 66.8Q66.24 66.36 65.79 66.03999999999999L65.79 66.03999999999999Q65.32 65.71 64.64 65.45Q63.96 65.19 63.13 64.93L63.13 64.93Q62.46 64.72999999999999 61.65 64.39Q60.83 64.03999999999999 60.25 63.56999999999999L60.25 63.56999999999999Q59.63 63.08 59.23 62.36Q58.83 61.629999999999995 58.83 60.66L58.83 60.66Q58.83 58.94 60.11 57.75Q61.38 56.56 63.52 56.56L63.52 56.56Q64.34 56.56 65.2 56.78Q66.06 56.989999999999995 66.59 57.29L66.59 57.29L66.92 56.55L67.94 56.55L68.15 61.04L67.18 61.04Q66.88 59.54 65.89 58.599999999999994Q64.91 57.65 63.49 57.65L63.49 57.65Q62.33 57.65 61.67 58.239999999999995Q61 58.82 61 59.64L61 59.64Q61 60.269999999999996 61.22 60.7Q61.44 61.12 61.88 61.42L61.88 61.42Q62.3 61.7 62.95 61.95Q63.59 62.2 64.54 62.51L64.54 62.51Q65.48 62.81 66.3 63.209999999999994Q67.13 63.599999999999994 67.67 64.08ZM79.75 69.28L79.75 70.31Q78.83 70.7 78.01 70.96Q77.19 71.22 76 71.22L76 71.22Q74.24 71.22 73.53 70.34Q72.81 69.45 72.81 67.84L72.81 67.84L72.81 58.379999999999995L70.29 58.379999999999995L70.29 57.019999999999996L72.87 57.019999999999996L72.87 52.67L75.45 52.67L75.45 57.019999999999996L79.46 57.019999999999996L79.46 58.379999999999995L75.48 58.379999999999995L75.48 66.18Q75.48 67.06 75.54 67.64Q75.6 68.22999999999999 75.84 68.67L75.84 68.67Q76.07 69.08 76.52 69.28999999999999Q76.98 69.50999999999999 77.74 69.50999999999999L77.74 69.50999999999999Q78.1 69.50999999999999 78.78 69.44Q79.47 69.38 79.75 69.28L79.75 69.28ZM88.07 69.99L88.07 70.92L81.31 70.92L81.31 69.99Q81.64 69.96 81.99 69.93Q82.33 69.9 82.59 69.82L82.59 69.82Q82.98 69.69 83.18 69.37Q83.37 69.05 83.37 68.53999999999999L83.37 68.53999999999999L83.37 59.92Q83.37 59.47 83.16 59.089999999999996Q82.96 58.72 82.59 58.46L82.59 58.46Q82.32 58.29 81.81 58.17Q81.3 58.05 80.87 58.019999999999996L80.87 58.019999999999996L80.87 57.099999999999994L85.8 56.79L86 56.989999999999995L86 68.37Q86 68.87 86.19 69.2Q86.38 69.52 86.79 69.68L86.79 69.68Q87.11 69.8 87.4 69.88Q87.7 69.96 88.07 69.99L88.07 69.99ZM86.28 51.28L86.28 51.28Q86.28 52.089999999999996 85.75 52.69Q85.22 53.29 84.44 53.29L84.44 53.29Q83.72 53.29 83.19 52.72Q82.66 52.15 82.66 51.41L82.66 51.41Q82.66 50.629999999999995 83.19 50.05Q83.72 49.47 84.44 49.47L84.44 49.47Q85.25 49.47 85.77 50.019999999999996Q86.28 50.56 86.28 51.28ZM101.89 69.47999999999999L101.89 69.47999999999999Q102.46 70.02 102.78 70.7Q103.11 71.38 103.11 72.38L103.11 72.38Q103.11 73.39 102.67 74.27Q102.23 75.16 101.34 75.81L101.34 75.81Q100.39 76.47 99.07 76.84Q97.76 77.21000000000001 95.82 77.21000000000001L95.82 77.21000000000001Q92.65 77.21000000000001 91.07 76.28Q89.5 75.35 89.5 73.57L89.5 73.57Q89.5 72.13 90.63 71.28999999999999Q91.77 70.46 93.52 70.38L93.52 70.38L93.52 70.19Q93.1 70.06 92.65 69.87Q92.19 69.68 91.87 69.42L91.87 69.42Q91.5 69.12 91.27 68.72Q91.05 68.32 91.05 67.72L91.05 67.72Q91.05 66.97 91.58 66.34Q92.11 65.71 93.18 65.25999999999999L93.18 65.25999999999999L93.18 65.05Q91.82 64.41 91.07 63.41Q90.32 62.41 90.32 61.099999999999994L90.32 61.099999999999994Q90.32 59.11 91.8 57.839999999999996Q93.28 56.56 95.59 56.56L95.59 56.56Q96.23 56.56 96.86 56.69Q97.49 56.82 98.14 57.019999999999996L98.14 57.019999999999996L103.01 57.019999999999996L103.01 58.379999999999995L99.73 58.379999999999995L99.73 58.46Q100.25 59.07 100.5 59.81Q100.76 60.54 100.76 61.25L100.76 61.25Q100.76 63.09 99.27 64.37Q97.77 65.64 95.79 65.64L95.79 65.64L94.08 65.64Q93.75 65.75 93.4 66.05Q93.04 66.35 93.04 66.86L93.04 66.86Q93.04 67.38 93.34 67.66Q93.64 67.93 94.06 68.03L94.06 68.03Q94.47 68.15 95.02 68.18Q95.56 68.2 96.14 68.22L96.14 68.22Q96.77 68.22999999999999 97.85 68.3Q98.93 68.37 99.39 68.39L99.39 68.39Q100.04 68.42 100.7 68.7Q101.35 68.97999999999999 101.89 69.47999999999999ZM98.07 61.19L98.07 61.19Q98.07 59.54 97.4 58.55Q96.72 57.57 95.51 57.57L95.51 57.57Q94.84 57.57 94.37 57.849999999999994Q93.89 58.12 93.59 58.629999999999995L93.59 58.629999999999995Q93.31 59.099999999999994 93.19 59.76Q93.07 60.42 93.07 61.11L93.07 61.11Q93.07 62.68 93.76 63.67Q94.44 64.66 95.53 64.66L95.53 64.66Q96.75 64.66 97.41 63.68Q98.07 62.7 98.07 61.19ZM100.79 72.91L100.79 72.91Q100.79 72.11 100.42 71.6Q100.05 71.09 99.3 70.91L99.3 70.91Q98.9 70.85 97.67 70.78Q96.44 70.71 94.81 70.71L94.81 70.71Q93.28 71.00999999999999 92.64 71.71Q91.99 72.41 91.99 73.50999999999999L91.99 73.50999999999999Q91.99 74.00999999999999 92.21 74.46Q92.42 74.92 92.94 75.3L92.94 75.3Q93.44 75.67 94.27 75.9Q95.11 76.13 96.31 76.13L96.31 76.13Q98.39 76.13 99.59 75.33Q100.79 74.53 100.79 72.91ZM118.07 69.75999999999999L118.07 70.67Q117.4 70.91 116.9 71.06Q116.4 71.21 115.76 71.21L115.76 71.21Q114.65 71.21 114 70.69Q113.34 70.17 113.15 69.18L113.15 69.18L113.07 69.18Q112.15 70.2 111.09 70.74Q110.04 71.28 108.55 71.28L108.55 71.28Q106.98 71.28 105.97 70.31Q104.95 69.35 104.95 67.78999999999999L104.95 67.78999999999999Q104.95 66.99 105.18 66.35Q105.41 65.71 105.86 65.2L105.86 65.2Q106.21 64.78 106.79 64.44Q107.38 64.11 107.89 63.91L107.89 63.91Q108.52 63.67 110.47 63.019999999999996Q112.42 62.37 113.1 62L113.1 62L113.1 60.599999999999994Q113.1 60.42 113.02 59.89Q112.94 59.37 112.69 58.9L112.69 58.9Q112.4 58.379999999999995 111.89 57.989999999999995Q111.37 57.599999999999994 110.42 57.599999999999994L110.42 57.599999999999994Q109.77 57.599999999999994 109.21 57.82Q108.65 58.04 108.42 58.28L108.42 58.28Q108.42 58.56 108.56 59.11Q108.69 59.67 108.69 60.129999999999995L108.69 60.129999999999995Q108.69 60.629999999999995 108.25 61.04Q107.8 61.45 107.01 61.45L107.01 61.45Q106.3 61.45 105.97 60.95Q105.63 60.44 105.63 59.82L105.63 59.82Q105.63 59.17 106.09 58.58Q106.55 57.98 107.29 57.51L107.29 57.51Q107.93 57.12 108.83 56.839999999999996Q109.74 56.56 110.6 56.56L110.6 56.56Q111.79 56.56 112.68 56.73Q113.56 56.89 114.29 57.43L114.29 57.43Q115.01 57.949999999999996 115.38 58.849999999999994Q115.76 59.75 115.76 61.17L115.76 61.17Q115.76 63.19 115.72 64.75999999999999Q115.67 66.32 115.67 68.18L115.67 68.18Q115.67 68.72999999999999 115.86 69.05Q116.06 69.38 116.45 69.61L116.45 69.61Q116.66 69.72999999999999 117.12 69.75Q117.58 69.75999999999999 118.07 69.75999999999999L118.07 69.75999999999999ZM113.04 68.08L113.12 63.19Q111.92 63.55 111.01 63.89Q110.11 64.22999999999999 109.33 64.72999999999999L109.33 64.72999999999999Q108.62 65.22 108.21 65.87Q107.8 66.53 107.8 67.44L107.8 67.44Q107.8 68.61 108.42 69.17Q109.03 69.72 109.98 69.72L109.98 69.72Q110.99 69.72 111.75 69.22999999999999Q112.52 68.74 113.04 68.08L113.04 68.08ZM128.22 69.28L128.22 70.31Q127.3 70.7 126.48 70.96Q125.66 71.22 124.47 71.22L124.47 71.22Q122.71 71.22 122 70.34Q121.28 69.45 121.28 67.84L121.28 67.84L121.28 58.379999999999995L118.76 58.379999999999995L118.76 57.019999999999996L121.34 57.019999999999996L121.34 52.67L123.92 52.67L123.92 57.019999999999996L127.93 57.019999999999996L127.93 58.379999999999995L123.95 58.379999999999995L123.95 66.18Q123.95 67.06 124.01 67.64Q124.07 68.22999999999999 124.31 68.67L124.31 68.67Q124.54 69.08 124.99 69.28999999999999Q125.45 69.50999999999999 126.21 69.50999999999999L126.21 69.50999999999999Q126.57 69.50999999999999 127.25 69.44Q127.94 69.38 128.22 69.28L128.22 69.28ZM136.54 69.99L136.54 70.92L129.78 70.92L129.78 69.99Q130.11 69.96 130.46 69.93Q130.8 69.9 131.06 69.82L131.06 69.82Q131.45 69.69 131.65 69.37Q131.84 69.05 131.84 68.53999999999999L131.84 68.53999999999999L131.84 59.92Q131.84 59.47 131.63 59.089999999999996Q131.43 58.72 131.06 58.46L131.06 58.46Q130.79 58.29 130.28 58.17Q129.77 58.05 129.34 58.019999999999996L129.34 58.019999999999996L129.34 57.099999999999994L134.27 56.79L134.47 56.989999999999995L134.47 68.37Q134.47 68.87 134.66 69.2Q134.85 69.52 135.26 69.68L135.26 69.68Q135.58 69.8 135.87 69.88Q136.17 69.96 136.54 69.99L136.54 69.99ZM134.75 51.28L134.75 51.28Q134.75 52.089999999999996 134.22 52.69Q133.69 53.29 132.91 53.29L132.91 53.29Q132.19 53.29 131.66 52.72Q131.13 52.15 131.13 51.41L131.13 51.41Q131.13 50.629999999999995 131.66 50.05Q132.19 49.47 132.91 49.47L132.91 49.47Q133.72 49.47 134.24 50.019999999999996Q134.75 50.56 134.75 51.28ZM152 63.8L152 63.8Q152 65.27 151.54 66.7Q151.07 68.12 150.21 69.11L150.21 69.11Q149.23 70.24 147.94 70.8Q146.65 71.35 145.05 71.35L145.05 71.35Q143.72 71.35 142.52 70.84Q141.31 70.34 140.38 69.38L140.38 69.38Q139.46 68.43 138.91 67.06Q138.37 65.7 138.37 64L138.37 64Q138.37 60.73 140.27 58.65Q142.18 56.56 145.26 56.56L145.26 56.56Q148.2 56.56 150.1 58.54Q152 60.519999999999996 152 63.8ZM149.07 63.83L149.07 63.83Q149.07 62.769999999999996 148.86 61.58Q148.65 60.4 148.22 59.58L148.22 59.58Q147.77 58.699999999999996 147.03 58.17Q146.3 57.64 145.24 57.64L145.24 57.64Q144.15 57.64 143.37 58.18Q142.6 58.72 142.12 59.65L142.12 59.65Q141.67 60.519999999999996 141.48 61.62Q141.3 62.72 141.3 63.76L141.3 63.76Q141.3 65.12 141.52 66.27Q141.74 67.43 142.22 68.33L142.22 68.33Q142.7 69.24 143.43 69.75Q144.16 70.27 145.24 70.27L145.24 70.27Q147.01 70.27 148.04 68.56Q149.07 66.84 149.07 63.83ZM169.59 69.99L169.59 70.92L162.76 70.92L162.76 69.99Q163.08 69.96 163.47 69.93Q163.86 69.9 164.11 69.82L164.11 69.82Q164.51 69.69 164.7 69.37Q164.89 69.05 164.89 68.53999999999999L164.89 68.53999999999999L164.89 61.36Q164.89 59.879999999999995 164.19 59.07Q163.49 58.26 162.49 58.26L162.49 58.26Q161.74 58.26 161.11 58.5Q160.49 58.73 160.01 59.07L160.01 59.07Q159.54 59.4 159.26 59.769999999999996Q158.99 60.15 158.86 60.37L158.86 60.37L158.86 68.4Q158.86 68.88 159.06 69.2Q159.26 69.50999999999999 159.65 69.68L159.65 69.68Q159.95 69.82 160.3 69.89Q160.65 69.96 161.01 69.99L161.01 69.99L161.01 70.92L154.17 70.92L154.17 69.99Q154.5 69.96 154.85 69.93Q155.19 69.9 155.45 69.82L155.45 69.82Q155.84 69.69 156.04 69.37Q156.23 69.05 156.23 68.53999999999999L156.23 68.53999999999999L156.23 59.92Q156.23 59.44 156.02 59.04Q155.82 58.629999999999995 155.45 58.379999999999995L155.45 58.379999999999995Q155.18 58.21 154.81 58.129999999999995Q154.44 58.05 154.02 58.019999999999996L154.02 58.019999999999996L154.02 57.099999999999994L158.66 56.79L158.86 56.989999999999995L158.86 58.96L158.93 58.96Q159.27 58.62 159.78 58.14Q160.29 57.67 160.74 57.37L160.74 57.37Q161.27 57.03 161.99 56.81Q162.71 56.58 163.62 56.58L163.62 56.58Q165.63 56.58 166.6 57.83Q167.57 59.08 167.57 61.17L167.57 61.17L167.57 68.43Q167.57 68.93 167.74 69.22999999999999Q167.91 69.53999999999999 168.32 69.71L168.32 69.71Q168.66 69.85 168.91 69.9Q169.16 69.96 169.59 69.99L169.59 69.99ZM184.68 69.75999999999999L184.68 70.67Q184.01 70.91 183.51 71.06Q183.01 71.21 182.37 71.21L182.37 71.21Q181.27 71.21 180.61 70.69Q179.95 70.17 179.76 69.18L179.76 69.18L179.68 69.18Q178.76 70.2 177.7 70.74Q176.65 71.28 175.16 71.28L175.16 71.28Q173.59 71.28 172.58 70.31Q171.57 69.35 171.57 67.78999999999999L171.57 67.78999999999999Q171.57 66.99 171.79 66.35Q172.02 65.71 172.47 65.2L172.47 65.2Q172.83 64.78 173.41 64.44Q173.99 64.11 174.5 63.91L174.5 63.91Q175.13 63.67 177.08 63.019999999999996Q179.03 62.37 179.71 62L179.71 62L179.71 60.599999999999994Q179.71 60.42 179.63 59.89Q179.55 59.37 179.3 58.9L179.3 58.9Q179.01 58.379999999999995 178.5 57.989999999999995Q177.98 57.599999999999994 177.03 57.599999999999994L177.03 57.599999999999994Q176.38 57.599999999999994 175.82 57.82Q175.26 58.04 175.04 58.28L175.04 58.28Q175.04 58.56 175.17 59.11Q175.3 59.67 175.3 60.129999999999995L175.3 60.129999999999995Q175.3 60.629999999999995 174.86 61.04Q174.41 61.45 173.62 61.45L173.62 61.45Q172.91 61.45 172.58 60.95Q172.25 60.44 172.25 59.82L172.25 59.82Q172.25 59.17 172.71 58.58Q173.17 57.98 173.9 57.51L173.9 57.51Q174.54 57.12 175.45 56.839999999999996Q176.35 56.56 177.22 56.56L177.22 56.56Q178.41 56.56 179.29 56.73Q180.18 56.89 180.9 57.43L180.9 57.43Q181.62 57.949999999999996 182 58.849999999999994Q182.37 59.75 182.37 61.17L182.37 61.17Q182.37 63.19 182.33 64.75999999999999Q182.29 66.32 182.29 68.18L182.29 68.18Q182.29 68.72999999999999 182.48 69.05Q182.67 69.38 183.06 69.61L183.06 69.61Q183.28 69.72999999999999 183.74 69.75Q184.2 69.75999999999999 184.68 69.75999999999999L184.68 69.75999999999999ZM179.65 68.08L179.74 63.19Q178.53 63.55 177.63 63.89Q176.72 64.22999999999999 175.94 64.72999999999999L175.94 64.72999999999999Q175.23 65.22 174.82 65.87Q174.41 66.53 174.41 67.44L174.41 67.44Q174.41 68.61 175.03 69.17Q175.64 69.72 176.59 69.72L176.59 69.72Q177.6 69.72 178.36 69.22999999999999Q179.13 68.74 179.65 68.08L179.65 68.08ZM192.75 69.99L192.75 70.92L185.94 70.92L185.94 69.99Q186.27 69.96 186.64 69.92Q187 69.89 187.24 69.82L187.24 69.82Q187.64 69.69 187.84 69.37Q188.04 69.05 188.04 68.53999999999999L188.04 68.53999999999999L188.04 52.37Q188.04 51.86 187.82 51.42Q187.6 50.97 187.24 50.72L187.24 50.72Q186.99 50.55 186.31 50.4Q185.63 50.26 185.22 50.23L185.22 50.23L185.22 49.33L190.47 49L190.67 49.22L190.67 68.37Q190.67 68.87 190.86 69.19Q191.04 69.50999999999999 191.45 69.68L191.45 69.68Q191.76 69.82 192.07 69.89Q192.37 69.96 192.75 69.99L192.75 69.99ZM222.78 50.83L222.78 51.83Q222.38 51.849999999999994 221.56 52.06Q220.74 52.269999999999996 220.39 52.5L220.39 52.5Q219.88 52.849999999999994 219.7 53.86Q219.52 54.87 219.52 56.41L219.52 56.41L219.52 71.12L218.29 71.12L206.11 54.68L206.11 65.05Q206.11 66.78999999999999 206.33 67.72Q206.55 68.66 207.01 69.05L207.01 69.05Q207.33 69.37 208.35 69.63Q209.37 69.9 209.7 69.92L209.7 69.92L209.7 70.92L201.45 70.92L201.45 69.92Q201.84 69.89 202.74 69.64Q203.65 69.39 203.88 69.2L203.88 69.2Q204.37 68.8 204.56 67.97999999999999Q204.74 67.17 204.74 65.2L204.74 65.2L204.74 55.3Q204.74 54.65 204.51 54Q204.29 53.349999999999994 203.9 53L203.9 53Q203.39 52.53 202.52 52.199999999999996Q201.65 51.86 201.11 51.83L201.11 51.83L201.11 50.83L206.85 50.83L218.15 66.15L218.15 56.589999999999996Q218.15 54.839999999999996 217.92 53.9Q217.7 52.949999999999996 217.27 52.64L217.27 52.64Q216.87 52.37 215.98 52.12Q215.08 51.86 214.61 51.83L214.61 51.83L214.61 50.83L222.78 50.83ZM235.6 67.03L236.59 67.64Q235.71 69.31 234.24 70.3Q232.77 71.28999999999999 230.85 71.28999999999999L230.85 71.28999999999999Q229.17 71.28999999999999 227.9 70.7Q226.63 70.1 225.81 69.08L225.81 69.08Q224.99 68.06 224.59 66.7Q224.18 65.34 224.18 63.83L224.18 63.83Q224.18 62.47 224.62 61.16Q225.05 59.849999999999994 225.88 58.8L225.88 58.8Q226.69 57.8 227.89 57.18Q229.08 56.56 230.57 56.56L230.57 56.56Q232.1 56.56 233.19 57.05Q234.28 57.53 234.96 58.36L234.96 58.36Q235.61 59.16 235.93 60.23Q236.25 61.31 236.25 62.56999999999999L236.25 62.56999999999999L236.25 63.5L227 63.5Q227 64.88 227.26 66Q227.53 67.11 228.09 67.96L228.09 67.96Q228.65 68.78 229.54 69.25999999999999Q230.43 69.72999999999999 231.66 69.72999999999999L231.66 69.72999999999999Q232.92 69.72999999999999 233.83 69.15Q234.75 68.56 235.6 67.03L235.6 67.03ZM227 62.31L233.46 62.31Q233.46 61.519999999999996 233.33 60.61Q233.19 59.71 232.89 59.099999999999994L232.89 59.099999999999994Q232.57 58.449999999999996 232 58.04Q231.43 57.629999999999995 230.54 57.629999999999995L230.54 57.629999999999995Q229.06 57.629999999999995 228.07 58.87Q227.09 60.099999999999994 227 62.31L227 62.31ZM259.15 56.96L259.15 57.87Q258.55 57.92 257.87 58.36Q257.18 58.8 256.87 59.68L256.87 59.68Q256.16 61.76 255.53 63.62Q254.9 65.49 254.12 67.81L254.12 67.81Q253.87 68.53999999999999 253.61 69.39Q253.34 70.24 253.13 71.02L253.13 71.02L251.91 71.02L248.16 60.739999999999995L244.38 71.02L243.22 71.02Q242.16 67.88 241.14 64.78Q240.13 61.69 239.35 59.4L239.35 59.4Q239.13 58.73 238.49 58.349999999999994Q237.85 57.97 237.26 57.9L237.26 57.9L237.26 56.96L243.49 56.96L243.49 57.949999999999996Q243.02 57.97 242.48 58.11Q241.93 58.25 241.93 58.58L241.93 58.58Q241.93 58.629999999999995 241.98 58.82Q242.03 59 242.1 59.21L242.1 59.21Q242.55 60.7 243.13 62.53Q243.7 64.37 244.61 67.3L244.61 67.3L248.18 57.239999999999995L249.53 57.239999999999995L253.17 67.16Q253.78 65.25999999999999 254.38 63.48Q254.99 61.7 255.44 60.15L255.44 60.15Q255.54 59.78 255.63 59.47Q255.72 59.17 255.72 58.87L255.72 58.87Q255.72 58.62 255.5 58.42Q255.27 58.22 254.94 58.089999999999996L254.94 58.089999999999996Q254.66 57.98 254.33 57.92Q254 57.87 253.84 57.87L253.84 57.87L253.84 56.96L259.15 56.96ZM286.63 61L286.63 61Q286.63 63.56 285.66 65.44Q284.7 67.33 283.16 68.53L283.16 68.53Q281.6 69.72999999999999 279.66 70.33Q277.72 70.92 275.65 70.92L275.65 70.92L267.33 70.92L267.33 69.92Q267.74 69.92 268.4 69.84Q269.05 69.75999999999999 269.27 69.66L269.27 69.66Q269.69 69.47999999999999 269.88 69.12Q270.07 68.75999999999999 270.07 68.25L270.07 68.25L270.07 53.75Q270.07 53.269999999999996 269.91 52.879999999999995Q269.75 52.5 269.27 52.269999999999996L269.27 52.269999999999996Q268.83 52.06 268.32 51.96Q267.81 51.86 267.44 51.83L267.44 51.83L267.44 50.83L276.22 50.83Q278.03 50.83 279.79 51.39Q281.54 51.949999999999996 282.85 52.9L282.85 52.9Q284.62 54.16 285.62 56.199999999999996Q286.63 58.239999999999995 286.63 61ZM283.16 60.98L283.16 60.98Q283.16 58.96 282.62 57.32Q282.08 55.69 281.05 54.47L281.05 54.47Q280.07 53.31 278.65 52.64Q277.22 51.98 275.48 51.98L275.48 51.98Q274.9 51.98 274.17 52Q273.44 52.019999999999996 273.09 52.03L273.09 52.03L273.09 67.47999999999999Q273.09 68.77 273.84 69.27Q274.59 69.75999999999999 276.15 69.75999999999999L276.15 69.75999999999999Q277.95 69.75999999999999 279.29 69.12Q280.64 68.49 281.47 67.35L281.47 67.35Q282.35 66.16 282.75 64.6Q283.16 63.04 283.16 60.98ZM299.57 58.76L299.57 58.76Q299.57 59.48 299.22 60.04Q298.86 60.599999999999994 298.13 60.599999999999994L298.13 60.599999999999994Q297.34 60.599999999999994 296.92 60.19Q296.5 59.78 296.5 59.28L296.5 59.28Q296.5 58.97 296.55 58.72Q296.6 58.46 296.64 58.21L296.64 58.21Q295.98 58.21 295.08 58.75Q294.19 59.28 293.57 60.269999999999996L293.57 60.269999999999996L293.57 68.4Q293.57 68.9 293.76 69.21Q293.95 69.52 294.36 69.68L294.36 69.68Q294.72 69.82 295.28 69.89Q295.83 69.96 296.25 69.99L296.25 69.99L296.25 70.92L288.88 70.92L288.88 69.99Q289.21 69.96 289.55 69.93Q289.9 69.9 290.16 69.82L290.16 69.82Q290.55 69.69 290.74 69.37Q290.94 69.05 290.94 68.53999999999999L290.94 68.53999999999999L290.94 59.92Q290.94 59.48 290.73 59.06Q290.52 58.629999999999995 290.16 58.379999999999995L290.16 58.379999999999995Q289.89 58.21 289.52 58.129999999999995Q289.15 58.05 288.73 58.019999999999996L288.73 58.019999999999996L288.73 57.099999999999994L293.37 56.79L293.57 56.989999999999995L293.57 58.96L293.64 58.96Q294.52 57.81 295.59 57.22Q296.67 56.62 297.56 56.62L297.56 56.62Q298.45 56.62 299.01 57.199999999999996Q299.57 57.78 299.57 58.76ZM315.87 69.75L315.87 70.67L311.33 70.97999999999999L311.12 70.78L311.12 69.00999999999999L311.03 69.00999999999999Q310.69 69.37 310.27 69.77Q309.84 70.17 309.29 70.5L309.29 70.5Q308.65 70.88 308.06 71.08Q307.46 71.28 306.37 71.28L306.37 71.28Q304.52 71.28 303.55 70.07Q302.58 68.86 302.58 66.55L302.58 66.55L302.58 59.86Q302.58 59.349999999999994 302.39 59.01Q302.2 58.66 301.83 58.41L301.83 58.41Q301.57 58.239999999999995 301.19 58.16Q300.81 58.08 300.38 58.05L300.38 58.05L300.38 57.129999999999995L305.04 56.79L305.25 56.989999999999995L305.25 66.69Q305.25 68.2 305.93 68.97Q306.61 69.72999999999999 307.56 69.72999999999999L307.56 69.72999999999999Q308.34 69.72999999999999 308.95 69.49Q309.56 69.25 309.97 68.93L309.97 68.93Q310.35 68.63 310.64 68.3Q310.93 67.96 311.09 67.68L311.09 67.68L311.09 59.76Q311.09 59.3 310.89 58.94Q310.69 58.58 310.34 58.32L310.34 58.32Q310.08 58.15 309.58 58.11Q309.08 58.08 308.45 58.05L308.45 58.05L308.45 57.129999999999995L313.52 56.79L313.74 56.989999999999995L313.74 68.08Q313.74 68.56 313.93 68.9Q314.13 69.24 314.49 69.47999999999999L314.49 69.47999999999999Q314.74 69.63 315.1 69.68Q315.45 69.72999999999999 315.87 69.75L315.87 69.75ZM329.7 69.47999999999999L329.7 69.47999999999999Q330.26 70.02 330.59 70.7Q330.92 71.38 330.92 72.38L330.92 72.38Q330.92 73.39 330.48 74.27Q330.04 75.16 329.15 75.81L329.15 75.81Q328.2 76.47 326.88 76.84Q325.56 77.21000000000001 323.62 77.21000000000001L323.62 77.21000000000001Q320.45 77.21000000000001 318.88 76.28Q317.31 75.35 317.31 73.57L317.31 73.57Q317.31 72.13 318.44 71.28999999999999Q319.57 70.46 321.33 70.38L321.33 70.38L321.33 70.19Q320.9 70.06 320.45 69.87Q320 69.68 319.67 69.42L319.67 69.42Q319.3 69.12 319.08 68.72Q318.85 68.32 318.85 67.72L318.85 67.72Q318.85 66.97 319.38 66.34Q319.91 65.71 320.99 65.25999999999999L320.99 65.25999999999999L320.99 65.05Q319.63 64.41 318.88 63.41Q318.13 62.41 318.13 61.099999999999994L318.13 61.099999999999994Q318.13 59.11 319.61 57.839999999999996Q321.09 56.56 323.4 56.56L323.4 56.56Q324.03 56.56 324.66 56.69Q325.29 56.82 325.95 57.019999999999996L325.95 57.019999999999996L330.82 57.019999999999996L330.82 58.379999999999995L327.53 58.379999999999995L327.53 58.46Q328.06 59.07 328.31 59.81Q328.57 60.54 328.57 61.25L328.57 61.25Q328.57 63.09 327.07 64.37Q325.58 65.64 323.6 65.64L323.6 65.64L321.88 65.64Q321.56 65.75 321.2 66.05Q320.85 66.35 320.85 66.86L320.85 66.86Q320.85 67.38 321.15 67.66Q321.44 67.93 321.87 68.03L321.87 68.03Q322.28 68.15 322.82 68.18Q323.37 68.2 323.95 68.22L323.95 68.22Q324.57 68.22999999999999 325.66 68.3Q326.74 68.37 327.19 68.39L327.19 68.39Q327.84 68.42 328.5 68.7Q329.16 68.97999999999999 329.7 69.47999999999999ZM325.88 61.19L325.88 61.19Q325.88 59.54 325.2 58.55Q324.53 57.57 323.31 57.57L323.31 57.57Q322.65 57.57 322.17 57.849999999999994Q321.7 58.12 321.4 58.629999999999995L321.4 58.629999999999995Q321.12 59.099999999999994 321 59.76Q320.88 60.42 320.88 61.11L320.88 61.11Q320.88 62.68 321.56 63.67Q322.25 64.66 323.34 64.66L323.34 64.66Q324.56 64.66 325.22 63.68Q325.88 62.7 325.88 61.19ZM328.59 72.91L328.59 72.91Q328.59 72.11 328.23 71.6Q327.86 71.09 327.11 70.91L327.11 70.91Q326.71 70.85 325.48 70.78Q324.25 70.71 322.62 70.71L322.62 70.71Q321.09 71.00999999999999 320.44 71.71Q319.8 72.41 319.8 73.50999999999999L319.8 73.50999999999999Q319.8 74.00999999999999 320.01 74.46Q320.23 74.92 320.75 75.3L320.75 75.3Q321.24 75.67 322.08 75.9Q322.92 76.13 324.12 76.13L324.12 76.13Q326.2 76.13 327.4 75.33Q328.59 74.53 328.59 72.91ZM341.87 64.08L341.87 64.08Q342.45 64.59 342.76 65.25999999999999Q343.07 65.92 343.07 66.89L343.07 66.89Q343.07 68.83 341.62 70.06Q340.17 71.28999999999999 337.86 71.28999999999999L337.86 71.28999999999999Q336.64 71.28999999999999 335.61 70.85Q334.59 70.41 334.15 70.03999999999999L334.15 70.03999999999999L333.86 70.97L332.8 70.97L332.66 66.11L333.64 66.11Q333.75 66.66 334.12 67.4Q334.49 68.13 335.01 68.72999999999999L335.01 68.72999999999999Q335.56 69.35 336.34 69.78Q337.11 70.2 338.07 70.2L338.07 70.2Q339.43 70.2 340.17 69.58Q340.9 68.97 340.9 67.82L340.9 67.82Q340.9 67.22999999999999 340.67 66.8Q340.44 66.36 339.98 66.03999999999999L339.98 66.03999999999999Q339.51 65.71 338.83 65.45Q338.16 65.19 337.32 64.93L337.32 64.93Q336.65 64.72999999999999 335.84 64.39Q335.03 64.03999999999999 334.45 63.56999999999999L334.45 63.56999999999999Q333.82 63.08 333.43 62.36Q333.03 61.629999999999995 333.03 60.66L333.03 60.66Q333.03 58.94 334.3 57.75Q335.58 56.56 337.72 56.56L337.72 56.56Q338.54 56.56 339.39 56.78Q340.25 56.989999999999995 340.79 57.29L340.79 57.29L341.11 56.55L342.13 56.55L342.35 61.04L341.37 61.04Q341.07 59.54 340.09 58.599999999999994Q339.1 57.65 337.69 57.65L337.69 57.65Q336.53 57.65 335.86 58.239999999999995Q335.2 58.82 335.2 59.64L335.2 59.64Q335.2 60.269999999999996 335.42 60.7Q335.63 61.12 336.07 61.42L336.07 61.42Q336.5 61.7 337.14 61.95Q337.79 62.2 338.74 62.51L338.74 62.51Q339.67 62.81 340.5 63.209999999999994Q341.33 63.599999999999994 341.87 64.08Z " fill="#333333"></path></svg>